<svg version="1.1" preserveAspectRatio="none" xmlns="http://www.w3.org/2000/svg" width="500" height="500" viewBox="0 0 500 500"><rect width="100%" height="100%" fill="#E7879A" fill-opacity="1"/><svg viewBox="97.6963 218.2261 338.9514 100" width="333" height="98.24417305843848" x="83.5px" y="200.8779px" xmlns="http://www.w3.org/2000/svg" xmlns:xlink="http://www.w3.org/1999/xlink" preserveAspectRatio="none"><defs></defs><style>.companyName {fill:#EFEFEF;fill-opacity:1;}.icon3-str {stroke:#5F6984;stroke-opacity:1;}</style><defs></defs><g opacity="1" transform="rotate(0 97.6963 218.2261)">
<svg width="338.9514" height="100" x="97.6963" y="218.2261" version="1.1" preserveAspectRatio="none" viewBox="0.5859 -29.9023 163.8477 48.3398">
  <g transform="matrix(1 0 0 1 0 0)" class="companyName"><path id="id-D6z1nYkh8" d="M46.52-25.16L46.52-25.16Q45.68-23.93 44.65-22.21Q43.61-20.49 42.44-18.36L42.44-18.36Q41.45-16.58 40.48-14.58Q39.51-12.58 38.63-10.62Q37.75-8.65 37.01-6.85Q36.27-5.04 35.72-3.66Q35.18-2.29 34.86-1.46Q34.55-0.63 34.55-0.61L34.55-0.61Q34.36-0.12 33.85-0.12L33.85-0.12Q33.59-0.12 33.40-0.28Q33.20-0.45 33.14-0.70L33.14-0.70Q33.14-0.72 32.96-1.53Q32.77-2.34 32.46-3.70Q32.15-5.06 31.75-6.83Q31.35-8.59 30.91-10.52Q30.47-12.44 30.02-14.41Q29.57-16.39 29.18-18.16L29.18-18.16Q27.87-14.47 26.55-11.63Q25.23-8.79 23.85-6.69Q22.46-4.59 20.99-3.16Q19.51-1.74 17.90-0.87Q16.29 0 14.52 0.37Q12.75 0.74 10.78 0.74L10.78 0.74Q9.77 0.74 8.61 0.52Q7.46 0.29 6.33-0.18Q5.20-0.64 4.16-1.35Q3.13-2.05 2.32-3.02Q1.52-3.98 1.05-5.21Q0.59-6.43 0.59-7.93L0.59-7.93Q0.59-9.51 1.25-10.83Q1.91-12.15 3.05-13.10Q4.18-14.04 5.67-14.57Q7.17-15.10 8.83-15.10L8.83-15.10Q10.04-15.10 11.01-14.89Q11.97-14.69 12.71-14.38Q13.46-14.06 13.98-13.69Q14.51-13.32 14.86-13.01Q15.21-12.70 15.37-12.47Q15.53-12.25 15.55-12.25L15.55-12.25Q15.66-12.03 15.66-11.84L15.66-11.84Q15.66-11.56 15.46-11.33Q15.25-11.09 14.92-11.09L14.92-11.09Q14.53-11.09 14.30-11.43L14.30-11.43Q14.28-11.45 13.98-11.79Q13.69-12.13 13.03-12.54Q12.36-12.95 11.32-13.28Q10.27-13.61 8.77-13.61L8.77-13.61Q7.40-13.61 6.18-13.19Q4.96-12.77 4.05-12.01Q3.14-11.25 2.61-10.21Q2.07-9.16 2.07-7.91L2.07-7.91Q2.07-6.68 2.48-5.66Q2.89-4.65 3.57-3.85Q4.26-3.05 5.16-2.46Q6.05-1.88 7.03-1.49Q8.01-1.11 8.99-0.93Q9.98-0.74 10.86-0.74L10.86-0.74Q12.34-0.74 13.76-0.97Q15.18-1.19 16.55-1.82Q17.93-2.44 19.26-3.54Q20.59-4.63 21.89-6.39Q23.20-8.14 24.48-10.63Q25.76-13.11 27.05-16.48L27.05-16.48Q27.44-17.50 27.81-18.67Q28.18-19.84 28.57-21.04L28.57-21.04Q28.24-22.75 28.10-23.96Q27.95-25.18 27.95-25.98L27.95-25.98Q27.95-26.84 28.09-27.34Q28.22-27.85 28.44-28.12Q28.65-28.38 28.91-28.45Q29.16-28.52 29.39-28.52L29.39-28.52Q29.59-28.52 29.83-28.44Q30.08-28.36 30.28-28.10Q30.49-27.83 30.63-27.32Q30.76-26.82 30.76-25.96L30.76-25.96Q30.76-25.02 30.59-23.79Q30.41-22.56 30.06-21.07L30.06-21.07Q30.31-19.88 30.64-18.42Q30.98-16.95 31.33-15.38Q31.68-13.81 32.05-12.17Q32.42-10.53 32.77-8.96Q33.13-7.40 33.45-5.98Q33.77-4.55 34.04-3.40L34.04-3.40Q34.57-4.73 35.33-6.61Q36.09-8.50 37.03-10.62Q37.97-12.73 39.01-14.93Q40.06-17.13 41.15-19.08L41.15-19.08Q42.70-21.86 43.98-23.84Q45.27-25.82 46.21-27.11Q47.15-28.40 47.69-29.01Q48.22-29.63 48.26-29.69L48.26-29.69Q48.48-29.90 48.79-29.90L48.79-29.90Q49.12-29.90 49.33-29.68Q49.53-29.45 49.53-29.16L49.53-29.16Q49.53-29.02 49.47-28.89L49.47-28.89Q49.47-28.87 49.25-28.31Q49.02-27.75 48.68-26.79Q48.34-25.82 47.93-24.52Q47.52-23.22 47.13-21.73Q46.74-20.23 46.44-18.60Q46.13-16.97 46.00-15.35L46.00-15.35Q45.94-14.61 45.90-13.80Q45.86-12.99 45.86-12.17L45.86-12.17Q45.86-10.88 45.98-9.57Q46.09-8.26 46.37-7.05Q46.64-5.84 47.11-4.78Q47.58-3.71 48.26-2.91Q48.95-2.11 49.89-1.62Q50.84-1.13 52.09-1.09L52.09-1.09Q52.40-1.07 52.59-0.83Q52.77-0.59 52.77-0.31L52.77-0.31Q52.77-0.04 52.56 0.18Q52.34 0.39 52.05 0.39L52.05 0.39Q51.74 0.39 51.43 0.33L51.43 0.33Q50.02 0.14 48.95-0.48Q47.87-1.09 47.09-2.00Q46.31-2.91 45.79-4.07Q45.27-5.23 44.96-6.56Q44.65-7.89 44.52-9.33Q44.39-10.76 44.39-12.23L44.39-12.23Q44.39-13.96 44.57-15.70Q44.75-17.44 45.04-19.09Q45.33-20.74 45.72-22.29Q46.11-23.83 46.52-25.16Z M61.17 0.27L61.17 0.27Q61.86-0.41 62.56-1.12Q63.26-1.84 63.93-2.62Q64.59-3.40 65.17-4.25Q65.74-5.10 66.19-6.05L66.19-6.05Q66.29-6.27 66.46-6.38Q66.64-6.48 66.86-6.48L66.86-6.48Q67.19-6.48 67.39-6.25Q67.60-6.02 67.60-5.72L67.60-5.72Q67.60-5.57 67.54-5.43L67.54-5.43Q66.93-4.16 66.15-3.11Q65.37-2.05 64.51-1.10Q63.65-0.16 62.77 0.73Q61.89 1.62 61.09 2.52L61.09 2.52Q61.02 3.87 61.09 5.22Q61.17 6.58 61.17 8.11L61.17 8.11Q61.17 9.36 61.09 10.61Q61.02 11.86 60.84 13.00Q60.66 14.14 60.36 15.14Q60.06 16.13 59.59 16.87Q59.12 17.60 58.50 18.02Q57.87 18.44 57.03 18.44L57.03 18.44Q55.64 18.44 54.90 17.48Q54.16 16.52 54.16 14.80L54.16 14.80Q54.16 13.87 54.37 12.79Q54.57 11.72 54.94 10.58Q55.31 9.43 55.83 8.26Q56.35 7.09 56.95 5.98Q57.56 4.86 58.24 3.86Q58.93 2.85 59.63 2.03L59.63 2.03Q59.67 1.09 59.72 0.09Q59.77-0.92 59.82-1.78L59.82-1.78Q59.32-0.88 58.56-0.33Q57.81 0.21 56.91 0.21L56.91 0.21Q55.43 0.21 54.59-0.78Q53.75-1.78 53.75-3.52L53.75-3.52Q53.75-4.79 53.99-5.83Q54.24-6.88 54.52-7.63Q54.80-8.38 55.04-8.78Q55.27-9.18 55.27-9.16L55.27-9.16Q55.49-9.49 55.88-9.49L55.88-9.49Q56.21-9.49 56.42-9.27Q56.62-9.04 56.62-8.75L56.62-8.75Q56.62-8.54 56.50-8.36L56.50-8.36Q56.52-8.38 56.32-8.04Q56.11-7.70 55.87-7.05Q55.63-6.41 55.42-5.51Q55.21-4.61 55.21-3.54L55.21-3.54Q55.21-2.46 55.61-1.86Q56.00-1.25 56.88-1.25L56.88-1.25Q57.99-1.25 58.89-2.90Q59.79-4.55 60.41-7.70L60.41-7.70Q60.45-7.95 60.64-8.12Q60.84-8.28 61.11-8.28L61.11-8.28Q61.43-8.28 61.64-8.07Q61.86-7.85 61.86-7.54L61.86-7.54Q61.86-7.48 61.78-6.85Q61.70-6.21 61.59-5.16Q61.48-4.10 61.37-2.71Q61.25-1.31 61.17 0.27ZM59.61 4.41L59.61 4.41Q58.73 5.68 58.00 7.09Q57.27 8.50 56.74 9.88Q56.21 11.27 55.92 12.54Q55.63 13.81 55.63 14.80L55.63 14.80Q55.63 15.82 55.96 16.40Q56.29 16.97 57.01 16.97L57.01 16.97Q57.66 16.97 58.15 16.34Q58.65 15.70 58.99 14.53Q59.34 13.36 59.51 11.69Q59.69 10.02 59.69 7.95L59.69 7.95Q59.69 7.11 59.66 6.25Q59.63 5.39 59.61 4.41Z M92.52-28.73L92.52-28.73Q94.92-28.73 97.42-28.29Q99.92-27.85 102.29-26.95Q104.65-26.05 106.74-24.70Q108.83-23.34 110.39-21.52Q111.95-19.71 112.86-17.42Q113.77-15.14 113.77-12.36L113.77-12.36Q113.77-9.59 112.79-7.23Q111.82-4.86 110.06-3.14Q108.30-1.43 105.86-0.45Q103.42 0.53 100.49 0.53L100.49 0.53Q99.10 0.53 97.62 0.32Q96.13 0.12 94.65-0.31Q93.16-0.74 91.73-1.38Q90.29-2.01 88.98-2.89L88.98-2.89Q87.44-1.37 85.42-0.52Q83.40 0.33 81.15 0.33L81.15 0.33Q79.94 0.33 78.89 0.06Q77.83-0.21 77.06-0.72Q76.29-1.23 75.85-1.95Q75.41-2.68 75.41-3.55L75.41-3.55Q75.41-4.32 75.79-4.98Q76.17-5.64 76.87-6.15Q77.56-6.66 78.53-6.95Q79.49-7.25 80.64-7.25L80.64-7.25Q84.04-7.25 88.69-4.75L88.69-4.75Q89.55-5.82 90.10-7.17L90.10-7.17Q90.70-8.67 91.04-10.26Q91.39-11.86 91.65-13.44Q91.91-15.02 92.20-16.52Q92.48-18.03 92.98-19.36Q93.48-20.68 94.29-21.79Q95.10-22.89 96.41-23.67L96.41-23.67Q96.60-23.77 96.76-23.77L96.76-23.77Q97.03-23.77 97.28-23.57Q97.52-23.38 97.52-23.03L97.52-23.03Q97.52-22.62 97.15-22.40L97.15-22.40Q96.11-21.80 95.46-20.89Q94.80-19.98 94.38-18.85Q93.95-17.71 93.69-16.41Q93.44-15.10 93.20-13.67L93.20-13.67Q93.01-12.50 92.77-11.22Q92.54-9.94 92.19-8.68Q91.84-7.42 91.30-6.22Q90.76-5.02 89.98-4.00L89.98-4.00Q90.02-3.98 90.03-3.97Q90.04-3.96 90.08-3.95L90.08-3.95Q92.56-2.46 95.23-1.70Q97.91-0.94 100.47-0.94L100.47-0.94Q103.24-0.94 105.44-1.86Q107.64-2.77 109.16-4.33Q110.68-5.88 111.48-7.95Q112.29-10.02 112.29-12.32L112.29-12.32Q112.29-14.67 111.50-16.69Q110.72-18.71 109.37-20.37Q108.01-22.03 106.14-23.32Q104.28-24.61 102.12-25.48Q99.96-26.35 97.59-26.81Q95.21-27.27 92.83-27.27L92.83-27.27Q89.63-27.27 86.98-26.73Q84.34-26.19 82.43-25.16Q80.53-24.12 79.47-22.62Q78.42-21.11 78.42-19.20L78.42-19.20Q78.42-18.11 78.74-17.27Q79.06-16.43 79.56-15.81Q80.06-15.20 80.64-14.77Q81.23-14.34 81.74-14.07Q82.25-13.81 82.61-13.69Q82.97-13.57 83.03-13.55L83.03-13.55Q83.28-13.50 83.43-13.29Q83.57-13.09 83.57-12.83L83.57-12.83Q83.57-12.50 83.34-12.32Q83.11-12.15 82.83-12.15L82.83-12.15Q82.44-12.15 81.86-12.33Q81.27-12.52 80.62-12.90Q79.96-13.28 79.31-13.86Q78.65-14.43 78.13-15.21Q77.60-16.00 77.28-16.99Q76.95-17.99 76.95-19.20L76.95-19.20Q76.95-21.41 78.08-23.17Q79.20-24.94 81.25-26.17Q83.30-27.40 86.16-28.07Q89.02-28.73 92.52-28.73ZM87.64-3.63L87.64-3.63Q85.61-4.71 83.87-5.25Q82.13-5.80 80.68-5.80L80.68-5.80Q79.86-5.80 79.17-5.62Q78.48-5.43 77.97-5.12Q77.46-4.80 77.17-4.39Q76.88-3.98 76.88-3.54L76.88-3.54Q76.88-3.11 77.14-2.68Q77.40-2.25 77.94-1.91Q78.48-1.58 79.28-1.37Q80.08-1.15 81.15-1.15L81.15-1.15Q82.99-1.15 84.66-1.81Q86.33-2.46 87.64-3.63Z M119.65-15.33L119.65-15.33Q119.65-14.59 119.13-14.07Q118.61-13.55 117.87-13.55L117.87-13.55Q117.13-13.55 116.61-14.07Q116.09-14.59 116.09-15.33L116.09-15.33Q116.09-15.70 116.23-16.03Q116.37-16.35 116.61-16.59Q116.86-16.84 117.18-16.97Q117.50-17.11 117.87-17.11L117.87-17.11Q118.24-17.11 118.56-16.97Q118.89-16.84 119.13-16.59Q119.38-16.35 119.51-16.03Q119.65-15.70 119.65-15.33ZM116.48-3.89L116.48-3.89Q116.48-6.70 116.84-9.49L116.84-9.49Q116.88-9.77 117.08-9.97Q117.29-10.18 117.62-10.18L117.62-10.18Q117.91-10.18 118.11-9.95Q118.30-9.73 118.30-9.43L118.30-9.43Q118.30-9.32 118.25-8.73Q118.20-8.14 118.13-7.33Q118.07-6.52 118.02-5.62Q117.97-4.71 117.97-3.95L117.97-3.95Q117.97-2.91 118.17-2.28Q118.38-1.64 118.70-1.29Q119.02-0.94 119.38-0.82Q119.75-0.70 120.08-0.70L120.08-0.70Q120.63-0.70 121.21-1.09Q121.80-1.48 122.41-2.19Q123.03-2.89 123.65-3.88Q124.28-4.86 124.88-6.07L124.88-6.07Q124.98-6.27 125.16-6.38Q125.33-6.48 125.55-6.48L125.55-6.48Q125.86-6.48 126.06-6.25Q126.27-6.02 126.27-5.74L126.27-5.74Q126.27-5.55 126.19-5.41L126.19-5.41Q125.96-4.96 125.61-4.32Q125.25-3.67 124.80-2.99Q124.36-2.30 123.82-1.63Q123.28-0.96 122.68-0.42Q122.07 0.12 121.41 0.45Q120.74 0.78 120.06 0.78L120.06 0.78Q119.18 0.78 118.52 0.41Q117.85 0.04 117.39-0.59Q116.93-1.21 116.71-2.06Q116.48-2.91 116.48-3.89ZM118.55-15.33L118.55-15.33Q118.55-15.61 118.35-15.81Q118.14-16.02 117.87-16.02L117.87-16.02Q117.60-16.02 117.40-15.81Q117.21-15.61 117.21-15.33L117.21-15.33Q117.21-15.06 117.40-14.86Q117.60-14.67 117.87-14.67L117.87-14.67Q118.14-14.67 118.35-14.86Q118.55-15.06 118.55-15.33Z M139.96-5.45L139.96-5.45Q139.88-5.29 139.64-4.79Q139.39-4.30 139.01-3.65Q138.63-3.01 138.13-2.30Q137.62-1.60 136.99-1.02Q136.37-0.43 135.64-0.05Q134.92 0.33 134.12 0.33L134.12 0.33Q132.99 0.33 132.22-0.39Q131.45-1.11 131.09-2.21L131.09-2.21Q130.43-1.09 129.51-0.44Q128.59 0.21 127.68 0.21L127.68 0.21Q126.95 0.21 126.37-0.05Q125.78-0.31 125.37-0.79Q124.96-1.27 124.74-1.91Q124.51-2.56 124.51-3.32L124.51-3.32Q124.51-4.84 125.03-6.01Q125.55-7.17 126.35-7.95Q127.15-8.73 128.12-9.12Q129.08-9.51 129.98-9.51L129.98-9.51Q130.59-9.51 131.09-9.35Q131.60-9.18 131.96-8.98Q132.32-8.79 132.52-8.62Q132.71-8.46 132.73-8.44L132.73-8.44Q132.95-8.18 132.95-7.91L132.95-7.91Q132.95-7.62 132.73-7.39Q132.52-7.17 132.23-7.17L132.23-7.17Q131.91-7.17 131.70-7.38L131.70-7.38Q131.66-7.42 131.52-7.53Q131.39-7.64 131.15-7.75Q130.92-7.87 130.60-7.96Q130.27-8.05 129.86-8.05L129.86-8.05Q129.26-8.05 128.57-7.77Q127.89-7.50 127.32-6.92Q126.76-6.35 126.38-5.48Q126.00-4.61 126.00-3.42L126.00-3.42Q126.00-3.05 126.07-2.67Q126.15-2.29 126.35-1.97Q126.54-1.66 126.88-1.46Q127.21-1.27 127.70-1.27L127.70-1.27Q128.05-1.27 128.51-1.50Q128.96-1.74 129.38-2.23Q129.80-2.71 130.15-3.46Q130.49-4.20 130.63-5.21L130.63-5.21Q130.66-5.49 130.88-5.67Q131.09-5.86 131.39-5.86L131.39-5.86Q131.66-5.86 131.87-5.64Q132.07-5.43 132.09-5.16L132.09-5.16Q132.11-4.79 132.17-4.11Q132.23-3.44 132.43-2.77Q132.64-2.11 133.05-1.62Q133.46-1.13 134.18-1.13L134.18-1.13Q134.65-1.13 135.11-1.39Q135.57-1.64 136.01-2.06Q136.45-2.48 136.85-3.02Q137.25-3.55 137.58-4.10Q137.91-4.65 138.16-5.16Q138.42-5.66 138.59-6.04L138.59-6.04Q138.69-6.25 138.88-6.37Q139.06-6.48 139.28-6.48L139.28-6.48Q139.61-6.48 139.81-6.24Q140.02-6.00 140.02-5.72L140.02-5.72Q140.02-5.59 139.96-5.45Z M140.66-8.03L140.66-8.03Q140.59-7.50 140.47-7.04Q140.35-6.58 140.24-6.24Q140.14-5.90 140.06-5.68Q139.98-5.47 139.96-5.45L139.96-5.45Q139.77-5 139.28-5L139.28-5Q139.00-5 138.77-5.21Q138.54-5.41 138.54-5.72L138.54-5.72Q138.54-5.84 138.57-5.90Q138.61-5.96 138.69-6.13Q138.77-6.31 138.89-6.72Q139.00-7.13 139.18-7.99L139.18-7.99Q138.85-7.99 138.50-8.01Q138.14-8.03 137.84-8.14Q137.54-8.26 137.34-8.52Q137.15-8.77 137.15-9.22L137.15-9.22Q137.15-9.55 137.33-10.12Q137.52-10.68 137.83-11.23Q138.14-11.78 138.54-12.18Q138.93-12.58 139.32-12.58L139.32-12.58Q139.77-12.58 140.05-12.25Q140.33-11.91 140.49-11.44Q140.64-10.96 140.71-10.43Q140.78-9.90 140.78-9.51L140.78-9.51Q141.11-9.51 141.44-9.52Q141.76-9.53 142.05-9.53L142.05-9.53Q143.16-9.53 143.75-9.04Q144.34-8.55 144.34-7.44L144.34-7.44Q144.34-6.99 144.28-6.50Q144.22-6.02 144.14-5.50Q144.06-4.98 144.00-4.47Q143.95-3.96 143.95-3.48L143.95-3.48Q143.95-2.77 144.14-2.31Q144.34-1.86 144.63-1.58Q144.92-1.31 145.25-1.20Q145.59-1.09 145.86-1.09L145.86-1.09Q146.70-1.09 147.44-1.64Q148.18-2.19 148.81-2.96Q149.43-3.73 149.93-4.59Q150.43-5.45 150.76-6.09L150.76-6.09Q150.86-6.27 151.04-6.37Q151.21-6.46 151.41-6.46L151.41-6.46Q151.76-6.46 151.95-6.24Q152.15-6.02 152.15-5.74L152.15-5.74Q152.15-5.55 152.07-5.39L152.07-5.39Q151.62-4.59 151.03-3.58Q150.43-2.58 149.67-1.70Q148.91-0.82 147.96-0.21Q147.01 0.39 145.88 0.39L145.88 0.39Q145.18 0.39 144.55 0.13Q143.93-0.14 143.47-0.63Q143.01-1.13 142.73-1.87Q142.46-2.60 142.46-3.52L142.46-3.52Q142.46-4.49 142.66-5.46Q142.85-6.43 142.85-7.30L142.85-7.30Q142.85-7.68 142.69-7.86Q142.52-8.05 141.95-8.05L141.95-8.05Q141.68-8.05 141.36-8.05Q141.04-8.05 140.66-8.03ZM138.50-9.47L139.36-9.47Q139.36-9.61 139.35-9.83Q139.34-10.06 139.31-10.27Q139.28-10.49 139.23-10.64Q139.18-10.80 139.12-10.80L139.12-10.80Q139.06-10.80 138.97-10.65Q138.89-10.51 138.79-10.30Q138.69-10.10 138.61-9.86Q138.54-9.63 138.50-9.47L138.50-9.47Z M158.01 0.27L158.01 0.27Q158.69-0.41 159.39-1.12Q160.10-1.84 160.76-2.62Q161.43-3.40 162.00-4.25Q162.58-5.10 163.03-6.05L163.03-6.05Q163.13-6.27 163.30-6.38Q163.48-6.48 163.69-6.48L163.69-6.48Q164.02-6.48 164.23-6.25Q164.43-6.02 164.43-5.72L164.43-5.72Q164.43-5.57 164.38-5.43L164.38-5.43Q163.77-4.16 162.99-3.11Q162.21-2.05 161.35-1.10Q160.49-0.16 159.61 0.73Q158.73 1.62 157.93 2.52L157.93 2.52Q157.85 3.87 157.93 5.22Q158.01 6.58 158.01 8.11L158.01 8.11Q158.01 9.36 157.93 10.61Q157.85 11.86 157.68 13.00Q157.50 14.14 157.20 15.14Q156.89 16.13 156.43 16.87Q155.96 17.60 155.33 18.02Q154.71 18.44 153.87 18.44L153.87 18.44Q152.48 18.44 151.74 17.48Q151.00 16.52 151.00 14.80L151.00 14.80Q151.00 13.87 151.20 12.79Q151.41 11.72 151.78 10.58Q152.15 9.43 152.67 8.26Q153.18 7.09 153.79 5.98Q154.39 4.86 155.08 3.86Q155.76 2.85 156.46 2.03L156.46 2.03Q156.50 1.09 156.55 0.09Q156.60-0.92 156.66-1.78L156.66-1.78Q156.15-0.88 155.40-0.33Q154.65 0.21 153.75 0.21L153.75 0.21Q152.27 0.21 151.43-0.78Q150.59-1.78 150.59-3.52L150.59-3.52Q150.59-4.79 150.83-5.83Q151.07-6.88 151.36-7.63Q151.64-8.38 151.88-8.78Q152.11-9.18 152.11-9.16L152.11-9.16Q152.32-9.49 152.71-9.49L152.71-9.49Q153.05-9.49 153.25-9.27Q153.46-9.04 153.46-8.75L153.46-8.75Q153.46-8.54 153.34-8.36L153.34-8.36Q153.36-8.38 153.15-8.04Q152.95-7.70 152.71-7.05Q152.46-6.41 152.26-5.51Q152.05-4.61 152.05-3.54L152.05-3.54Q152.05-2.46 152.44-1.86Q152.83-1.25 153.71-1.25L153.71-1.25Q154.82-1.25 155.72-2.90Q156.62-4.55 157.25-7.70L157.25-7.70Q157.29-7.95 157.48-8.12Q157.68-8.28 157.95-8.28L157.95-8.28Q158.26-8.28 158.48-8.07Q158.69-7.85 158.69-7.54L158.69-7.54Q158.69-7.48 158.61-6.85Q158.54-6.21 158.43-5.16Q158.32-4.10 158.20-2.71Q158.09-1.31 158.01 0.27ZM156.45 4.41L156.45 4.41Q155.57 5.68 154.83 7.09Q154.10 8.50 153.57 9.88Q153.05 11.27 152.75 12.54Q152.46 13.81 152.46 14.80L152.46 14.80Q152.46 15.82 152.79 16.40Q153.13 16.97 153.85 16.97L153.85 16.97Q154.49 16.97 154.99 16.34Q155.49 15.70 155.83 14.53Q156.17 13.36 156.35 11.69Q156.52 10.02 156.52 7.95L156.52 7.95Q156.52 7.11 156.49 6.25Q156.46 5.39 156.45 4.41Z"/></g>
</svg>
</g></svg></svg>